<?xml version="1.0" encoding="UTF-8" standalone="no"?>
<!DOCTYPE svg PUBLIC "-//W3C//DTD SVG 1.1//EN" "http://www.w3.org/Graphics/SVG/1.1/DTD/svg11.dtd">
<svg width="100%" height="100%" viewBox="0 0 512 512" version="1.1" xmlns="http://www.w3.org/2000/svg" xmlns:xlink="http://www.w3.org/1999/xlink" xml:space="preserve" xmlns:serif="http://www.serif.com/" style="fill-rule:evenodd;clip-rule:evenodd;stroke-linejoin:round;stroke-miterlimit:2;">
    <g transform="matrix(2.34142,0,0,2.34142,-252.692,133.243)">
        <g transform="matrix(1,0,0,1,120.876,-91.6427)">
            <path d="M96.488,46L8,120.609L96.382,200.23L184.763,119.436L96.488,46Z" style="fill:rgb(255,255,0);"/>
        </g>
        <g transform="matrix(1,0,0,1,120.876,-91.6427)">
            <path d="M96.382,242.143L8,168.648L8,120.609L101.333,197.824L96.382,242.143Z" style="fill:rgb(205,205,0);"/>
        </g>
        <g transform="matrix(1,0,0,1,120.876,-91.6427)">
            <path d="M184.763,168.648L96.382,242.143L96.382,192.873L184.763,119.436L184.763,168.648Z" style="fill:rgb(255,255,50);"/>
        </g>
    </g>
    <g transform="matrix(1.66718,0,0,1.68854,-220.651,105.994)">
        <text x="187.412px" y="159.209px" style="font-family:'Corporate-Logo-Bold', 'Corporate Logo Bold';font-size:203.953px;">箱</text>
    </g>
</svg>
