<?xml version="1.0" encoding="UTF-8" standalone="no"?>
<!DOCTYPE svg PUBLIC "-//W3C//DTD SVG 1.1//EN" "http://www.w3.org/Graphics/SVG/1.1/DTD/svg11.dtd">
<svg width="100%" height="100%" viewBox="0 0 512 256" version="1.1" xmlns="http://www.w3.org/2000/svg" xmlns:xlink="http://www.w3.org/1999/xlink" xml:space="preserve" xmlns:serif="http://www.serif.com/" style="fill-rule:evenodd;clip-rule:evenodd;stroke-linejoin:round;stroke-miterlimit:2;">
    <g id="レイヤー2">
        <g>
            <g transform="matrix(1,0,0,1,-120.876,91.6427)">
                <g transform="matrix(1,0,0,1,120.876,-91.6427)">
                    <path d="M96.488,46L8,120.609L96.382,200.23L184.763,119.436L96.488,46Z" style="fill:rgb(255,255,0);"/>
                </g>
                <g transform="matrix(1,0,0,1,120.876,-91.6427)">
                    <path d="M96.382,242.143L8,168.648L8,120.609L101.333,197.824L96.382,242.143Z" style="fill:rgb(205,205,0);"/>
                </g>
                <g transform="matrix(1,0,0,1,120.876,-91.6427)">
                    <path d="M184.763,168.648L96.382,242.143L96.382,192.873L184.763,119.436L184.763,168.648Z" style="fill:rgb(255,255,50);"/>
                </g>
            </g>
            <g transform="matrix(0.444781,0,0,0.464877,130.091,137.715)">
                <g transform="matrix(1,0,0,1,120.876,-91.6427)">
                    <path d="M96.488,46L8,120.609L96.382,199.656L184.763,119.436L96.488,46Z" style="fill:rgb(255,0,0);"/>
                </g>
                <g transform="matrix(1,0,0,1,120.876,-91.6427)">
                    <path d="M96.382,242.143L8,168.648L8,120.609L107.791,202.201L96.382,242.143Z" style="fill:rgb(205,0,0);"/>
                </g>
                <g transform="matrix(1,0,0,1,120.876,-91.6427)">
                    <path d="M184.763,168.648L96.382,242.143L96.382,192.873L184.763,119.436L184.763,168.648Z" style="fill:rgb(255,50,50);"/>
                </g>
            </g>
            <g transform="matrix(0.306098,0,0,0.364152,243.322,161.633)">
                <g transform="matrix(1,0,0,1,120.876,-91.6427)">
                    <path d="M96.488,46L8,120.609L96.382,201.532L184.763,119.436L96.488,46Z" style="fill:rgb(0,176,80);"/>
                </g>
                <g transform="matrix(1,0,0,1,120.876,-91.6427)">
                    <path d="M96.382,242.143L8,168.648L8,120.609L104.586,199.769L96.382,242.143Z" style="fill:rgb(0,141,64);"/>
                </g>
                <g transform="matrix(1,0,0,1,120.876,-91.6427)">
                    <path d="M184.763,168.648L96.382,242.143L96.382,192.873L184.763,119.436L184.763,168.648Z" style="fill:rgb(50,191,114);"/>
                </g>
            </g>
            <g transform="matrix(0.262702,0,0,0.312525,314.171,207.965)">
                <g transform="matrix(1,0,0,1,120.876,-91.6427)">
                    <path d="M96.488,46L8,120.609L96.382,205.204L184.763,119.436L96.488,46Z" style="fill:rgb(112,48,160);"/>
                </g>
                <g transform="matrix(1,0,0,1,120.876,-91.6427)">
                    <path d="M96.382,242.143L8,168.648L8,120.609L104.034,199.129L96.382,242.143Z" style="fill:rgb(90,39,129);"/>
                </g>
                <g transform="matrix(1,0,0,1,120.876,-91.6427)">
                    <path d="M184.763,168.648L96.382,242.143L96.382,192.873L184.763,119.436L184.763,168.648Z" style="fill:rgb(140,89,179);"/>
                </g>
            </g>
            <g transform="matrix(0.10931,0,0,0.115523,462.593,146.09)">
                <g transform="matrix(1,0,0,1,120.876,-91.6427)">
                    <path d="M96.488,46L8,120.609L96.382,205.204L184.763,119.436L96.488,46Z" style="fill:rgb(0,176,240);"/>
                </g>
                <g transform="matrix(1,0,0,1,120.876,-91.6427)">
                    <path d="M96.382,242.143L8,168.648L8,120.609L104.034,199.129L96.382,242.143Z" style="fill:rgb(0,141,193);"/>
                </g>
                <g transform="matrix(1,0,0,1,120.876,-91.6427)">
                    <path d="M184.763,168.648L96.382,242.143L96.382,192.873L184.763,119.436L184.763,168.648Z" style="fill:rgb(50,191,243);"/>
                </g>
            </g>
        </g>
    </g>
</svg>
