<?xml version="1.0" encoding="UTF-8" standalone="no"?>
<!DOCTYPE svg PUBLIC "-//W3C//DTD SVG 1.1//EN" "http://www.w3.org/Graphics/SVG/1.1/DTD/svg11.dtd">
<svg width="100%" height="100%" viewBox="0 0 512 512" version="1.1" xmlns="http://www.w3.org/2000/svg" xmlns:xlink="http://www.w3.org/1999/xlink" xml:space="preserve" xmlns:serif="http://www.serif.com/" style="fill-rule:evenodd;clip-rule:evenodd;stroke-linejoin:round;stroke-miterlimit:2;">
    <g transform="matrix(2.34142,0,0,2.34142,-252.692,133.243)">
        <g transform="matrix(1,0,0,1,120.876,-91.6427)">
            <path d="M96.488,46L8,120.609L96.382,200.23L184.763,119.436L96.488,46Z" style="fill:rgb(255,255,0);"/>
        </g>
        <g transform="matrix(1,0,0,1,120.876,-91.6427)">
            <path d="M96.382,242.143L8,168.648L8,120.609L101.333,197.824L96.382,242.143Z" style="fill:rgb(205,205,0);"/>
        </g>
        <g transform="matrix(1,0,0,1,120.876,-91.6427)">
            <path d="M184.763,168.648L96.382,242.143L96.382,192.873L184.763,119.436L184.763,168.648Z" style="fill:rgb(255,255,50);"/>
        </g>
    </g>
    <g transform="matrix(1.66718,0,0,1.68854,-220.651,105.994)">
        <g transform="matrix(203.953,0,0,203.953,187.412,159.209)">
            <path d="M0.785,-0.399L0.636,-0.399L0.636,-0.358L0.785,-0.358L0.785,-0.399ZM0.636,-0.21L0.785,-0.21L0.785,-0.253L0.636,-0.253L0.636,-0.21ZM0.636,-0.06L0.785,-0.06L0.785,-0.105L0.636,-0.105L0.636,-0.06ZM0.962,-0.772L0.962,-0.652L0.813,-0.652C0.832,-0.624 0.846,-0.602 0.854,-0.586L0.73,-0.536C0.719,-0.567 0.697,-0.605 0.662,-0.652L0.637,-0.652C0.607,-0.607 0.577,-0.569 0.548,-0.54C0.534,-0.552 0.515,-0.567 0.489,-0.583C0.464,-0.6 0.442,-0.613 0.425,-0.622C0.432,-0.628 0.443,-0.638 0.458,-0.653L0.365,-0.653C0.376,-0.635 0.385,-0.616 0.393,-0.597L0.318,-0.561L0.35,-0.561L0.35,-0.474L0.474,-0.474L0.474,-0.343L0.35,-0.343L0.35,-0.334C0.407,-0.287 0.456,-0.244 0.496,-0.205L0.496,-0.526L0.933,-0.526L0.933,0.086L0.785,0.086L0.785,0.056L0.636,0.056L0.636,0.092L0.496,0.092L0.496,-0.189L0.411,-0.086C0.401,-0.104 0.38,-0.132 0.35,-0.171L0.35,0.096L0.211,0.096L0.211,-0.147C0.174,-0.092 0.136,-0.046 0.099,-0.009C0.073,-0.054 0.044,-0.092 0.012,-0.123C0.076,-0.173 0.134,-0.246 0.185,-0.343L0.055,-0.343L0.055,-0.474L0.211,-0.474L0.211,-0.561L0.264,-0.561C0.255,-0.582 0.24,-0.61 0.221,-0.645C0.192,-0.598 0.164,-0.561 0.138,-0.531C0.103,-0.56 0.063,-0.586 0.016,-0.61C0.048,-0.64 0.077,-0.677 0.105,-0.723C0.133,-0.768 0.156,-0.815 0.172,-0.864L0.311,-0.828C0.298,-0.794 0.29,-0.776 0.289,-0.773L0.487,-0.773L0.487,-0.686C0.53,-0.739 0.562,-0.799 0.584,-0.864L0.726,-0.828C0.721,-0.816 0.714,-0.797 0.703,-0.772L0.962,-0.772Z" style="fill-rule:nonzero;"/>
        </g>
    </g>
</svg>
