<?xml version="1.0" encoding="UTF-8" standalone="no"?>
<!DOCTYPE svg PUBLIC "-//W3C//DTD SVG 1.1//EN" "http://www.w3.org/Graphics/SVG/1.1/DTD/svg11.dtd">
<svg width="100%" height="100%" viewBox="0 0 512 256" version="1.1" xmlns="http://www.w3.org/2000/svg" xmlns:xlink="http://www.w3.org/1999/xlink" xml:space="preserve" xmlns:serif="http://www.serif.com/" style="fill-rule:evenodd;clip-rule:evenodd;stroke-linejoin:round;stroke-miterlimit:2;">
    <rect x="0" y="0" width="512" height="256" style="fill:rgb(50,191,243);fill-opacity:0;"/>
    <g transform="matrix(0.522681,0,0,0.529377,307.331,140.586)">
        <g transform="matrix(203.953,0,0,203.953,187.412,159.209)">
            <path d="M0.348,-0.781L0.535,-0.711L0.309,-0.199L0.523,-0.336L0.621,-0.313L0.711,-0.105L0.871,-0.258L0.926,-0.063L0.742,0.074L0.582,0.031L0.516,-0.156L0.242,-0.023L0.207,0.047L0.066,-0.027L0.348,-0.781Z" style="fill-rule:nonzero;"/>
        </g>
    </g>
    <g transform="matrix(0.712039,0,0,0.721161,-107.192,80.0052)">
        <g transform="matrix(203.953,0,0,203.953,187.412,159.209)">
            <path d="M0.785,-0.399L0.636,-0.399L0.636,-0.358L0.785,-0.358L0.785,-0.399ZM0.636,-0.21L0.785,-0.21L0.785,-0.253L0.636,-0.253L0.636,-0.21ZM0.636,-0.06L0.785,-0.06L0.785,-0.105L0.636,-0.105L0.636,-0.06ZM0.962,-0.772L0.962,-0.652L0.813,-0.652C0.832,-0.624 0.846,-0.602 0.854,-0.586L0.73,-0.536C0.719,-0.567 0.697,-0.605 0.662,-0.652L0.637,-0.652C0.607,-0.607 0.577,-0.569 0.548,-0.54C0.534,-0.552 0.515,-0.567 0.489,-0.583C0.464,-0.6 0.442,-0.613 0.425,-0.622C0.432,-0.628 0.443,-0.638 0.458,-0.653L0.365,-0.653C0.376,-0.635 0.385,-0.616 0.393,-0.597L0.318,-0.561L0.35,-0.561L0.35,-0.474L0.474,-0.474L0.474,-0.343L0.35,-0.343L0.35,-0.334C0.407,-0.287 0.456,-0.244 0.496,-0.205L0.496,-0.526L0.933,-0.526L0.933,0.086L0.785,0.086L0.785,0.056L0.636,0.056L0.636,0.092L0.496,0.092L0.496,-0.189L0.411,-0.086C0.401,-0.104 0.38,-0.132 0.35,-0.171L0.35,0.096L0.211,0.096L0.211,-0.147C0.174,-0.092 0.136,-0.046 0.099,-0.009C0.073,-0.054 0.044,-0.092 0.012,-0.123C0.076,-0.173 0.134,-0.246 0.185,-0.343L0.055,-0.343L0.055,-0.474L0.211,-0.474L0.211,-0.561L0.264,-0.561C0.255,-0.582 0.24,-0.61 0.221,-0.645C0.192,-0.598 0.164,-0.561 0.138,-0.531C0.103,-0.56 0.063,-0.586 0.016,-0.61C0.048,-0.64 0.077,-0.677 0.105,-0.723C0.133,-0.768 0.156,-0.815 0.172,-0.864L0.311,-0.828C0.298,-0.794 0.29,-0.776 0.289,-0.773L0.487,-0.773L0.487,-0.686C0.53,-0.739 0.562,-0.799 0.584,-0.864L0.726,-0.828C0.721,-0.816 0.714,-0.797 0.703,-0.772L0.962,-0.772Z" style="fill-rule:nonzero;"/>
        </g>
    </g>
    <g transform="matrix(0.453169,0,0,0.458975,91.5489,115.143)">
        <g transform="matrix(203.953,0,0,203.953,187.412,159.209)">
            <path d="M0.098,-0.688L0.726,-0.712L0.904,-0.581L0.856,0.011L0.133,0.059L0.098,-0.153L0.678,-0.166L0.714,-0.533L0.12,-0.485L0.098,-0.688Z" style="fill-rule:nonzero;"/>
        </g>
    </g>
    <g transform="matrix(0.394927,0,0,0.399986,190.262,77.6661)">
        <g transform="matrix(203.953,0,0,203.953,187.412,159.209)">
            <path d="M0.099,-0.709L0.709,-0.765L0.901,-0.595L0.811,0.04L0.144,0.045L0.099,-0.709ZM0.268,-0.539L0.302,-0.124L0.618,-0.129L0.697,-0.583L0.268,-0.539Z" style="fill-rule:nonzero;"/>
        </g>
    </g>
    <g transform="matrix(0.459236,0,0,0.465119,249.496,103.755)">
        <g transform="matrix(203.953,0,0,203.953,187.412,159.209)">
            <path d="M0.201,-0.773L0.354,-0.773L0.318,-0.398L0.377,-0.445L0.471,-0.305L0.33,-0.199L0.143,-0.27L0.201,-0.773ZM0.67,-0.75L0.822,-0.785L0.857,-0.27L0.588,0.094L0.365,0.035L0.682,-0.293L0.67,-0.75Z" style="fill-rule:nonzero;"/>
        </g>
    </g>
</svg>
